<?xml version="1.0" encoding="UTF-8"?><svg id="Layer_2" xmlns="http://www.w3.org/2000/svg" xmlns:xlink="http://www.w3.org/1999/xlink" viewBox="0 0 272.43 108.53"><defs><linearGradient id="linear-gradient" x1="2.98" y1="96.11" x2="48.14" y2="96.11" gradientTransform="translate(0 111.14) scale(1 -1)" gradientUnits="userSpaceOnUse"><stop offset=".12" stop-color="#0869a1"/><stop offset=".21" stop-color="#0a73aa"/><stop offset=".54" stop-color="#1294c6"/><stop offset=".81" stop-color="#17a8d8"/><stop offset=".99" stop-color="#19b0df"/></linearGradient><linearGradient id="linear-gradient-2" x1="0" y1="69" x2="47.21" y2="69" gradientTransform="translate(0 111.14) scale(1 -1)" gradientUnits="userSpaceOnUse"><stop offset="0" stop-color="#2f912e"/><stop offset="1" stop-color="#50cf4f"/></linearGradient></defs><g id="a"><path d="M252.35,79.6h3.27l6.77,16.34,6.77-16.34h3.15l-8.62,19.8c-1.84,4.24-4.41,6.36-7.72,6.36-.74,0-1.41-.07-2.01-.21s-1.02-.28-1.26-.4l-.35-.23.95-2.31c.58.36,1.44.54,2.6.54,2.07,0,3.73-1.34,4.96-4.01l-8.51-19.53h0Z" style="fill:#314554; stroke-width:0px;"/><path d="M255.97,105.81c-.73,0-1.41-.07-2.02-.21-.6-.14-1.03-.28-1.27-.41l-.39-.25.98-2.4.05.03c.57.35,1.43.53,2.57.53,2.04,0,3.69-1.33,4.91-3.96l-8.53-19.58h3.37v.03l6.74,16.23,6.74-16.26h3.25l-.03.06-8.62,19.8c-1.84,4.24-4.45,6.39-7.76,6.39h.01ZM252.59,104.9l.32.21c.23.12.65.26,1.25.4s1.27.21,2,.21c3.27,0,5.85-2.13,7.67-6.33l8.6-19.74h-3.05l-6.8,16.41-.04-.1-6.76-16.31h-3.17l8.49,19.49v.02c-1.25,2.68-2.93,4.03-5.01,4.03-1.13,0-1.99-.17-2.58-.52l-.91,2.23h-.01Z" style="fill:#314554; stroke-width:0px;"/><path d="M82.47,80.03c.5-.9,1.13-1.74,1.91-2.51,2.15-2.13,4.82-3.2,7.99-3.2.95,0,1.88.11,2.8.35.92.23,1.67.49,2.24.77.58.28,1.12.6,1.64.96.51.36.85.62,1,.77l.35.35,2.17-1.89-.43-.42c-.26-.28-.68-.62-1.26-1.02-.58-.4-1.25-.8-2.01-1.19-.76-.4-1.72-.74-2.87-1.02-1.16-.28-2.35-.42-3.58-.42-4.02,0-7.41,1.35-10.18,4.05-1.37,1.33-2.4,2.81-3.09,4.44h3.32v-.02Z" style="fill:#314554; stroke-width:0px;"/><path d="M100.76,92.96l-.91.89c-.6.59-1.6,1.19-2.99,1.79s-2.89.91-4.49.91c-3.18,0-5.84-1.07-7.99-3.2-1.08-1.07-1.88-2.26-2.42-3.58h-3.25c.65,2.08,1.8,3.93,3.46,5.55,2.73,2.65,6.1,3.97,10.12,3.97,1.29,0,2.53-.16,3.74-.48s2.19-.68,2.95-1.08c.76-.4,1.47-.85,2.13-1.37.66-.51,1.08-.87,1.26-1.06.18-.19.33-.35.43-.48l-2.05-1.85h.01Z" style="fill:#314554; stroke-width:0px;"/><rect x="56.89" y="83.51" width="24.61" height="3.11" style="fill:#314554; stroke-width:0px;"/><rect x="67.57" y="72.76" width="3.11" height="24.61" style="fill:#314554; stroke-width:0px;"/><path d="M74.75,64.49h-7.18V0h7.18v64.49Z" style="fill:#314554; stroke-width:0px;"/><path d="M118.85,65.21V0h7.19v58.85h26.55v6.36s-33.74,0-33.74,0Z" style="fill:#314554; stroke-width:0px;"/><path d="M160.88,0h7.37v65.21h-7.37V0Z" style="fill:#314554; stroke-width:0px;"/><path d="M184.42,11.13v54.08h-7V0h7.65l39.71,54.06V0h7v65.21h-7l-40.35-54.08h0Z" style="fill:#314554; stroke-width:0px;"/><path d="M272.38,0v7h-34.02V0h34.02Z" style="fill:#314554; stroke-width:0px;"/><path d="M272.38,58.21v7h-34.02v-7h34.02Z" style="fill:#314554; stroke-width:0px;"/><path d="M272.38,29.11v7h-34.02v-7h34.02Z" style="fill:#314554; stroke-width:0px;"/><path d="M77.22,31.68L102.13,0h9.67l-25.86,31.58c-.1.1-.1.26,0,.37l27.7,33.26h-9.67l-26.75-32.8c-.18-.21-.18-.52,0-.73Z" style="fill:#314554; stroke-width:0px;"/><path d="M100.93,92.9l-.91.89c-.6.59-1.6,1.19-2.99,1.79s-2.89.91-4.49.91c-3.18,0-5.84-1.07-7.99-3.2-.99-.98-1.74-2.07-2.27-3.26h-3.28c.67,1.95,1.77,3.7,3.34,5.23,2.73,2.65,6.1,3.97,10.12,3.97,1.29,0,2.53-.16,3.74-.48s2.19-.68,2.95-1.08c.76-.4,1.47-.85,2.13-1.37.66-.51,1.08-.87,1.26-1.06.18-.19.33-.35.43-.48l-2.05-1.85h.01Z" style="fill:#314554; stroke-width:0px;"/><path d="M126.12,81.5c2.06,1.99,3.1,4.47,3.1,7.43s-1.05,5.45-3.16,7.48c-2.1,2.03-4.69,3.05-7.77,3.05s-5.65-1-7.71-2.99c-2.07-1.99-3.1-4.47-3.1-7.43s1.05-5.45,3.16-7.49c2.1-2.03,4.69-3.05,7.77-3.05s5.65,1,7.71,2.99h0ZM123.93,94.51c1.5-1.48,2.25-3.33,2.25-5.54s-.75-4.03-2.25-5.5c-1.5-1.48-3.37-2.22-5.61-2.22s-4.07.74-5.56,2.22c-1.5,1.48-2.25,3.31-2.25,5.5s.74,4.07,2.23,5.54c1.48,1.48,3.35,2.22,5.58,2.22s4.11-.74,5.61-2.22Z" style="fill:#314554; stroke-width:0px;"/><path d="M118.29,99.51c-3.07,0-5.68-1.01-7.74-3s-3.11-4.5-3.11-7.46,1.07-5.49,3.17-7.52,4.73-3.06,7.8-3.06,5.68,1.01,7.74,3h0c2.06,1.99,3.11,4.5,3.11,7.46s-1.07,5.49-3.17,7.52c-2.1,2.03-4.73,3.06-7.8,3.06ZM118.41,78.56c-3.05,0-5.65,1.02-7.74,3.04-2.09,2.01-3.14,4.52-3.14,7.45s1.04,5.42,3.08,7.39c2.04,1.98,4.63,2.98,7.68,2.98s5.65-1.02,7.74-3.04c2.09-2.01,3.14-4.52,3.14-7.45s-1.04-5.42-3.08-7.39h0c-2.05-1.98-4.63-2.98-7.68-2.98ZM118.33,96.78c-2.24,0-4.13-.75-5.62-2.23-1.49-1.48-2.24-3.36-2.24-5.58s.76-4.06,2.26-5.54,3.38-2.23,5.6-2.23,4.14.75,5.64,2.23,2.26,3.34,2.26,5.54-.76,4.1-2.26,5.58-3.4,2.23-5.64,2.23ZM118.33,81.3c-2.19,0-4.05.74-5.53,2.2-1.48,1.46-2.23,3.3-2.23,5.47s.74,4.05,2.21,5.51,3.33,2.2,5.55,2.2,4.09-.74,5.57-2.2h0c1.48-1.46,2.23-3.32,2.23-5.51s-.75-4.01-2.23-5.47-3.36-2.2-5.57-2.2Z" style="fill:#314554; stroke-width:0px;"/><path d="M135.47,78.91h3.04l-.16,3.8c1.51-2.8,3.99-4.2,7.45-4.2,1.67,0,3.16.44,4.45,1.33,1.3.88,2.24,2.17,2.83,3.86.67-1.72,1.71-3.01,3.1-3.88,1.39-.87,2.99-1.31,4.8-1.31,2.27,0,4.15.77,5.65,2.32,1.5,1.54,2.25,3.78,2.25,6.71v11.52h-3.04v-10.57c0-2.43-.54-4.24-1.62-5.44-1.08-1.2-2.44-1.8-4.09-1.8-1.86,0-3.4.6-4.61,1.8-1.21,1.2-1.82,3.07-1.82,5.6v10.42h-3.04v-10.57c0-2.43-.54-4.24-1.62-5.44-1.08-1.2-2.44-1.8-4.09-1.8-1.86,0-3.4.6-4.61,1.8-1.21,1.2-1.82,3.07-1.82,5.6v10.42h-3.04v-20.16h-.01Z" style="fill:#314554; stroke-width:0px;"/><path d="M168.91,99.11h-3.13v-10.62c0-2.41-.54-4.23-1.61-5.41-1.07-1.19-2.43-1.79-4.05-1.79-1.84,0-3.38.6-4.58,1.79s-1.81,3.06-1.81,5.57v10.46h-3.13v-10.62c0-2.4-.54-4.23-1.61-5.41-1.07-1.19-2.43-1.79-4.05-1.79-1.84,0-3.38.6-4.58,1.79s-1.81,3.06-1.81,5.57v10.46h-3.13v-20.25h3.13v.05l-.16,3.6c1.52-2.69,4.01-4.05,7.39-4.05,1.68,0,3.18.45,4.48,1.34,1.27.87,2.21,2.13,2.81,3.77.68-1.66,1.71-2.94,3.07-3.79,1.39-.87,3.01-1.32,4.82-1.32,2.27,0,4.18.78,5.68,2.33s2.26,3.81,2.26,6.74v11.57h.01ZM165.87,99.02h2.94v-11.48c0-2.91-.75-5.15-2.24-6.68-1.48-1.53-3.37-2.3-5.61-2.3-1.79,0-3.4.44-4.77,1.3-1.37.86-2.41,2.16-3.08,3.86l-.05.12-.04-.12c-.59-1.67-1.54-2.96-2.82-3.84-1.28-.87-2.77-1.32-4.43-1.32-3.42,0-5.91,1.4-7.41,4.17l-.1.18v-.2l.17-3.75h-2.94v20.06h2.94v-10.37c0-2.54.62-4.43,1.83-5.64,1.22-1.2,2.78-1.82,4.65-1.82,1.65,0,3.04.61,4.12,1.82,1.08,1.2,1.63,3.05,1.63,5.48v10.53h2.94v-10.37c0-2.54.62-4.43,1.83-5.64,1.22-1.2,2.78-1.82,4.65-1.82,1.65,0,3.04.61,4.12,1.82,1.08,1.2,1.63,3.05,1.63,5.48v10.53h.04Z" style="fill:#314554; stroke-width:0px;"/><path d="M231.35,98.89h-3.04v-20.16h3.04l-.12,3.88c1.51-2.85,4.05-4.28,7.61-4.28,2.32,0,4.25.79,5.79,2.38s2.31,3.86,2.31,6.81v11.37h-3.04v-10.42c0-2.48-.56-4.34-1.68-5.56-1.12-1.23-2.53-1.84-4.23-1.84-1.94,0-3.53.65-4.78,1.94-1.24,1.29-1.86,3.31-1.86,6.06v9.82h0Z" style="fill:#314554; stroke-width:0px;"/><path d="M246.98,98.94h-3.13v-10.46c0-2.46-.56-4.32-1.67-5.53s-2.52-1.83-4.2-1.83c-1.92,0-3.51.65-4.74,1.93-1.23,1.28-1.85,3.31-1.85,6.03v9.87h-3.13v-20.25h3.13v.05l-.12,3.68c1.52-2.74,4.06-4.13,7.56-4.13,2.32,0,4.28.8,5.82,2.39,1.54,1.58,2.32,3.89,2.32,6.84v11.41h0ZM243.95,98.85h2.94v-11.32c0-2.93-.77-5.21-2.29-6.78-1.52-1.57-3.46-2.36-5.75-2.36-3.53,0-6.07,1.43-7.57,4.25l-.09.18.13-4.03h-2.94v20.06h2.94v-9.77c0-2.75.63-4.8,1.87-6.09,1.25-1.3,2.86-1.96,4.81-1.96,1.71,0,3.14.62,4.27,1.86,1.12,1.23,1.69,3.11,1.69,5.6v10.37h-.01Z" style="fill:#314554; stroke-width:0px;"/><path d="M193.9,80.59c-1.45-.84-3.11-1.27-4.93-1.27-1.56,0-2.95.29-4.13.86-1.18.57-2.13,1.23-2.81,1.98-.55.6-.91,1.14-1.09,1.61v-3.87h-2.87v28.63h2.8v-12.46c.16.41.51.91,1.05,1.52.67.75,1.62,1.45,2.81,2.06s2.6.92,4.17.92c1.82,0,3.48-.42,4.95-1.26,1.47-.84,2.65-2.06,3.51-3.65.86-1.58,1.3-3.5,1.3-5.71s-.43-4.12-1.28-5.71c-.85-1.58-2.02-2.81-3.47-3.66h-.01ZM193.17,83.52c.36.31.69.66.99,1.04.1.13.2.26.29.4.14.21.29.42.42.65.68,1.21,1.03,2.68,1.03,4.35s-.35,3.13-1.03,4.35c-.68,1.21-1.58,2.16-2.67,2.81-1.09.65-2.29.98-3.58.98-1.4,0-2.7-.34-3.86-1-1.16-.67-2.1-1.61-2.78-2.82-.68-1.2-1.03-2.65-1.03-4.31s.35-3.11,1.03-4.31,1.62-2.16,2.78-2.83,2.46-1.02,3.86-1.02c1.28,0,2.49.33,3.58.99.2.12.38.26.56.39.14.11.28.22.42.34h0Z" style="fill:#314554; stroke-width:0px;"/><path d="M217.81,79.78c-1.34-1.2-3.22-1.81-5.6-1.81-2.11,0-3.89.5-5.31,1.49s-2.39,2.42-2.91,4.24l-.05.17,2.44.84.05-.2c.33-1.28,1-2.28,1.99-2.97s2.25-1.05,3.75-1.05,2.82.38,3.7,1.13c.87.75,1.31,1.79,1.31,3.12v1.51l-6.31.7c-2.51.24-4.42.91-5.7,1.98-1.29,1.09-1.95,2.51-1.95,4.24,0,1.18.29,2.21.85,3.06.56.85,1.38,1.51,2.42,1.97,1.03.45,2.29.67,3.75.67,1.84,0,3.39-.41,4.6-1.21,1-.67,1.79-1.57,2.36-2.69l.14,3.62h2.49v-13.86c0-2.1-.68-3.77-2.02-4.98v.03ZM217.18,88.61v.79c0,1.35-.26,2.58-.76,3.66-.5,1.07-1.26,1.92-2.25,2.52-.99.61-2.26.91-3.76.91-1.42,0-2.51-.31-3.26-.92s-1.11-1.43-1.11-2.5.38-1.89,1.15-2.51c.78-.63,2.02-1.04,3.68-1.22l6.31-.74h0Z" style="fill:#314554; stroke-width:0px;"/><path d="M210.24,98.94c-1.47,0-2.74-.23-3.77-.68-1.05-.46-1.87-1.12-2.44-1.98s-.86-1.9-.86-3.09c0-1.74.66-3.18,1.96-4.28,1.28-1.08,3.21-1.75,5.73-1.99l6.27-.7v-1.47c0-1.31-.44-2.35-1.3-3.08-.87-.75-2.11-1.12-3.67-1.12s-2.74.35-3.72,1.04c-.97.68-1.64,1.67-1.97,2.95l-.06.25-.05-.02-2.48-.86.06-.21c.52-1.83,1.51-3.27,2.93-4.27s3.21-1.5,5.33-1.5c2.39,0,4.29.61,5.63,1.82h0c1.35,1.21,2.04,2.9,2.04,5.01v13.91h-2.58v-.04l-.13-3.44c-.56,1.05-1.33,1.91-2.29,2.55-1.22.81-2.78,1.22-4.63,1.22v-.02ZM212.16,80.45c1.58,0,2.84.38,3.73,1.15.88.76,1.33,1.82,1.33,3.15v1.55l-6.35.71c-2.5.24-4.41.9-5.68,1.97-1.28,1.08-1.93,2.49-1.93,4.21,0,1.17.28,2.19.84,3.04.56.84,1.37,1.5,2.4,1.95s2.28.67,3.74.67c1.83,0,3.37-.4,4.58-1.2.99-.66,1.78-1.56,2.34-2.67l.08-.16v.18l.14,3.57h2.39v-13.82c0-2.08-.67-3.75-2.01-4.94h0c-1.33-1.19-3.2-1.8-5.57-1.8-2.1,0-3.88.5-5.28,1.49-1.41.99-2.38,2.4-2.89,4.22l-.04.13,2.35.81.04-.15c.34-1.29,1.01-2.3,2.01-3s2.27-1.06,3.78-1.06ZM210.4,96.52c-1.43,0-2.53-.31-3.29-.93s-1.13-1.45-1.13-2.53.38-1.92,1.17-2.55c.79-.63,2.03-1.05,3.71-1.23l6.36-.74v.84c0,1.36-.26,2.6-.77,3.68-.51,1.08-1.27,1.93-2.27,2.54s-2.27.92-3.79.92h0ZM217.12,88.65l-6.26.73c-1.66.18-2.89.59-3.66,1.21-.76.61-1.13,1.42-1.13,2.48s.36,1.86,1.09,2.46c.74.6,1.83.91,3.23.91,1.49,0,2.75-.3,3.74-.91.98-.6,1.73-1.44,2.23-2.5.5-1.07.76-2.29.76-3.64v-.74h0Z" style="fill:#314554; stroke-width:0px;"/><polygon points="25.9 29.76 43.03 21.29 48.14 8.4 40.28 .29 2.98 18.25 25.9 29.76" style="fill:url(#linear-gradient); stroke-width:0px;"/><polygon points="37.97 64.24 0 43.51 0 20.04 36.94 38.66 47.21 56.76 37.97 64.24" style="fill:url(#linear-gradient-2); stroke-width:0px;"/></g></svg>